<svg id="visual" viewBox="0 0 900 600" width="900" height="600" xmlns="http://www.w3.org/2000/svg"
    xmlns:xlink="http://www.w3.org/1999/xlink" version="1.1">
    <rect x="0" y="0" width="900" height="600" fill="#FF0066"></rect>
    <g transform="translate(439.6460080027183 298.7898556588833)">
        <path
            d="M104.2 -120.7C137.7 -70.7 169.4 -35.4 177.4 8C185.4 51.4 169.8 102.8 136.3 152.4C102.8 202.1 51.4 250 7.9 242.2C-35.6 234.3 -71.2 170.5 -100.5 120.8C-129.8 71.2 -152.9 35.6 -157.8 -4.8C-162.6 -45.3 -149.2 -90.5 -119.8 -140.5C-90.5 -190.5 -45.3 -245.3 -4.9 -240.3C35.4 -235.4 70.7 -170.7 104.2 -120.7"
            fill="#7fbdff"></path>
    </g>
    <g transform="translate(427.6771324181225 269.92950646150405)">
        <path
            d="M157.4 -133.9C205.9 -108.9 248.4 -54.4 249.2 0.7C249.9 55.9 208.7 111.7 160.2 159.4C111.7 207.1 55.9 246.5 9.4 237.1C-37 227.7 -74 169.3 -108.8 121.7C-143.7 74 -176.3 37 -193.2 -16.9C-210 -70.7 -211.1 -141.4 -176.3 -166.4C-141.4 -191.4 -70.7 -170.7 -8.1 -162.6C54.4 -154.5 108.9 -158.9 157.4 -133.9"
            fill="#7fbdff"></path>
    </g>
</svg>