<svg id="Layer_1" data-name="Layer 1" xmlns="http://www.w3.org/2000/svg" xmlns:xlink="http://www.w3.org/1999/xlink" viewBox="0 0 133.56 128"><defs><style>.cls-1{fill:url(#linear-gradient);}</style><linearGradient id="linear-gradient" x1="893.57" y1="540.07" x2="1027.13" y2="540.07" gradientUnits="userSpaceOnUse"><stop offset="0" stop-color="#007bff"/><stop offset="1" stop-color="#6610f2"/></linearGradient></defs><title>favicon</title><path class="cls-1" d="M1027.08,510.35l-1.74-9.55a2.77,2.77,0,0,0-2.72-2.27h0a2.76,2.76,0,0,0-2.7,2.29l-15.72,90.57H924.07a6.68,6.68,0,0,1-5-2.23,8.55,8.55,0,0,1-2.14-6.24c.59-5.1,4.27-8.8,8.76-8.8h66.86a2.75,2.75,0,0,0,2.71-2.3l15.65-92.53a2.76,2.76,0,0,0-2.71-3.22H941.39c-15.24,0-30.12,12.4-33.17,27.62L894,573.58c-1.29,8.19.71,15.88,5.61,21.67a25.49,25.49,0,0,0,19.88,8.81h88a6.36,6.36,0,0,0,6.26-5.31l13.39-87.5A2.78,2.78,0,0,0,1027.08,510.35Z" transform="translate(-893.57 -476.07)"/></svg>