<svg id="Layer_1" data-name="Layer 1" xmlns="http://www.w3.org/2000/svg" viewBox="0 0 267.12 256"><defs><style>.cls-1{fill:#1a1a1a;}</style></defs><title>logo-black</title><path class="cls-1" d="M1093.82,480.63l-3.5-19.11a5.51,5.51,0,0,0-5.42-4.52h0a5.51,5.51,0,0,0-5.4,4.57L1048,642.71H887.8a13.4,13.4,0,0,1-10-4.47,17.1,17.1,0,0,1-4.28-12.47c1.17-10.2,8.54-17.6,17.51-17.6h133.72a5.5,5.5,0,0,0,5.43-4.59l31.31-185.08a5.51,5.51,0,0,0-5.43-6.43H922.43c-30.48,0-60.23,24.79-66.33,55.24L827.55,607.1c-2.57,16.36,1.42,31.75,11.22,43.33,9.63,11.36,23.75,17.63,39.76,17.63h2.71l173.31,0a12.71,12.71,0,0,0,12.52-10.63l26.77-175A5.24,5.24,0,0,0,1093.82,480.63Z" transform="translate(-826.79 -412.07)"/></svg>